<svg xmlns="http://www.w3.org/2000/svg" version="1.1" xmlns:xlink="http://www.w3.org/1999/xlink" width="32" height="32" x="0" y="0" viewBox="0 0 512 512" style="enable-background:new 0 0 512 512" xml:space="preserve" class=""><g><path d="M492 492H332v-80c0-44.183 35.817-80 80-80s80 35.817 80 80v80zM452 60c0 22.091-17.909 40-40 40s-40-17.909-40-40V20h80v40zM412 332V100M252 492H94.692c-19.906 0-36.783-14.637-39.598-34.343L20 212h312l-9.648 67.535M56 212c0-66.274 53.726-120 120-120s120 53.726 120 120M180 292 20 452" style="stroke-width:40;stroke-linecap:round;stroke-linejoin:round;stroke-miterlimit:10;" fill="none" stroke="#3779c1" stroke-width="40" stroke-linecap="round" stroke-linejoin="round" stroke-miterlimit="10" data-original="#000000" opacity="1" class=""></path></g></svg>